# xmcd
#
# Track frame offsets:
# 150
# 23256
# 44709
# 71081
# 88780
# 101527
# 111864
# 130664
# 147166
# 172066
# 193202
# 213087
# 228364
# 252700
# 269980
# 285178
# 299420
#
# Disc length: 4342 seconds
#
#
# Revision: 0
# Processed by: cddbd v1.5.2PL0 Copyright (c) Steve Scherf et al.
# Submitted via: HACP 1.20
#
DISCID=0910f411
DTITLE=Boyz II Men - Best Ballads
DYEAR=1900
DGENRE=
TTITLE0=50 candles
TTITLE1=Brokenhearted
TTITLE2=End of the road
TTITLE3=I'll make love to You
TTITLE4=In the still of the night
TTITLE5=It's so hard to say goodbye to yesterday
TTITLE6=Let it snow
TTITLE7=Lonely heart
TTITLE8=On bended knee
TTITLE9=One sweet day (feat. Mariah Carey)
TTITLE10=Please don't go
TTITLE11=This is my heart
TTITLE12=Trying times
TTITLE13=Uhh ahh
TTITLE14=Water runs dry
TTITLE15=Yesterday
TTITLE16=Your love
EXTD=
EXTT0=
EXTT1=
EXTT2=
EXTT3=
EXTT4=
EXTT5=
EXTT6=
EXTT7=
EXTT8=
EXTT9=
EXTT10=
EXTT11=
EXTT12=
EXTT13=
EXTT14=
EXTT15=
EXTT16=
PLAYORDER=
